<svg xml:space="preserve" style="max-height: 500px" viewBox="0 0 52.800000000000004 47.04" y="0px" x="0px" version="1.1" xmlns:xlink="http://www.w3.org/1999/xlink" xmlns="http://www.w3.org/2000/svg" width="52.800000000000004" height="47.04"><path d="M43.5,15.3c-0.9,0-1.8,0.3-2.5,0.8v-5c0-2.1-1.7-3.8-3.8-3.8H26.8c-1.1,0-2.1,0.5-2.8,1.3c-0.7-0.8-1.7-1.3-2.8-1.3H10.9  c-2.1,0-3.8,1.7-3.8,3.8v5c-0.7-0.5-1.6-0.8-2.5-0.8c-2.5,0-4.5,2-4.5,4.5v13.1c0,2.1,1.5,3.9,3.5,4.3L4.2,40c0.1,0.5,0.5,0.8,1,0.8  h3.5c0.5,0,0.9-0.3,1-0.8l0.6-2.7h27.6l0.6,2.7c0.1,0.5,0.5,0.8,1,0.8h3.5c0.5,0,0.9-0.3,1-0.8l0.6-2.7c2-0.4,3.5-2.2,3.5-4.3V19.9  C48,17.3,46,15.3,43.5,15.3z M26.8,9.2h10.3c1,0,1.8,0.8,1.8,1.8v8.8v5.7H25V11C25,10,25.8,9.2,26.8,9.2z M9.1,11  c0-1,0.8-1.8,1.8-1.8h10.3c1,0,1.8,0.8,1.8,1.8v14.5H9.1v-5.7V11z M7.9,38.8H5.9l-0.3-1.4h2.6L7.9,38.8z M42.1,38.8h-1.9l-0.3-1.4  h2.6L42.1,38.8z M46,32.9c0,1.3-1.1,2.4-2.4,2.4H4.4c-1.3,0-2.4-1.1-2.4-2.4V19.9c0-1.4,1.1-2.5,2.5-2.5s2.5,1.1,2.5,2.5v6.7  c0,0.6,0.4,1,1,1h31.8c0.6,0,1-0.4,1-1v-6.7c0-1.4,1.1-2.5,2.5-2.5s2.5,1.1,2.5,2.5V32.9z"/><text font-family="'Helvetica Neue', Helvetica, Arial-Unicode, Arial, Sans-serif" font-weight="bold" font-size="5px" fill="#000000" y="63" x="0">Created by Vectors Market</text><text font-family="'Helvetica Neue', Helvetica, Arial-Unicode, Arial, Sans-serif" font-weight="bold" font-size="5px" fill="#000000" y="68" x="0">from the Noun Project</text></svg>