<svg xmlns="http://www.w3.org/2000/svg" xmlns:xlink="http://www.w3.org/1999/xlink" xml:space="preserve" version="1.1" style="shape-rendering:geometricPrecision;text-rendering:geometricPrecision;image-rendering:optimizeQuality;" viewBox="0 0 747.22 978.3125" x="0px" y="0px" fill-rule="evenodd" clip-rule="evenodd"><defs><style type="text/css">
   
    .fil0 {fill:black}
   
  </style></defs><g><path class="fil0" d="M96.82 46.66l553.59 0c27.45,0 50,22.55 50,50l0 589.33c0,27.47 -22.53,50 -50,50l-553.59 0c-27.46,0 -49.99,-22.53 -49.99,-50l0 -589.33c0,-27.45 22.54,-50 49.99,-50zm-10.87 -46.66l575.32 0c47.3,0 85.95,38.65 85.95,85.95l0 610.75c0,47.3 -38.65,85.95 -85.95,85.95l-575.32 0c-47.3,0 -85.95,-38.65 -85.95,-85.95l0 -610.75c0,-47.31 38.64,-85.95 85.95,-85.95zm575.32 26.78l-575.32 0c-32.51,0 -59.17,26.66 -59.17,59.17l0 610.75c0,32.51 26.66,59.17 59.17,59.17l575.32 0c32.51,0 59.17,-26.66 59.17,-59.17l0 -610.75c0,-32.51 -26.66,-59.17 -59.17,-59.17zm-426.5 572.56l0 -416.02 157.08 0c27.6,0 48.71,1.35 63.33,3.97 60.99,10.11 97.42,53 97.42,116.11 0,96.28 -70.22,126.28 -155.91,126.28l-106.72 0 0 169.66 -55.2 0zm55.2 -218.47l107.5 0c53.15,0 98.19,-14.69 98.19,-75.83 0,-31.55 -16.31,-60.47 -47.93,-69.23 -9.3,-2.43 -26.44,-3.68 -51.33,-3.68l-106.43 0 0 148.74z"/></g><text x="0" y="797.65" fill="#000000" font-size="5px" font-weight="bold" font-family="'Helvetica Neue', Helvetica, Arial-Unicode, Arial, Sans-serif">Created by zahrotul fuadah</text><text x="0" y="802.65" fill="#000000" font-size="5px" font-weight="bold" font-family="'Helvetica Neue', Helvetica, Arial-Unicode, Arial, Sans-serif">from the Noun Project</text></svg>