<svg xmlns="http://www.w3.org/2000/svg" xmlns:xlink="http://www.w3.org/1999/xlink" version="1.1" x="0px" y="0px" viewBox="0 0 100 125" enable-background="new 0 0 100 100" xml:space="preserve"><path d="M89.9257813,19.75H10.8242188c-0.7768555,0-1.40625,0.6298828-1.40625,1.40625v46.7578125  c0,0.7763672,0.6293945,1.40625,1.40625,1.40625H45.6875V76.9375H26.46875c-0.7768555,0-1.40625,0.6298828-1.40625,1.40625  S25.6918945,79.75,26.46875,79.75h47.8125c0.7763672,0,1.40625-0.6298828,1.40625-1.40625s-0.6298828-1.40625-1.40625-1.40625  H55.0625v-7.6171875h34.8632813c0.7763672,0,1.40625-0.6298828,1.40625-1.40625V21.15625  C91.3320313,20.3798828,90.7021484,19.75,89.9257813,19.75z M88.5195313,66.5078125H12.2304688V22.5625h76.2890625V66.5078125z"/><text x="0" y="115" fill="#000000" font-size="5px" font-weight="bold" font-family="'Helvetica Neue', Helvetica, Arial-Unicode, Arial, Sans-serif">Created by Hyungsuk,Hwang</text><text x="0" y="120" fill="#000000" font-size="5px" font-weight="bold" font-family="'Helvetica Neue', Helvetica, Arial-Unicode, Arial, Sans-serif">from the Noun Project</text></svg>